<?xml version="1.0" ?><!-- Uploaded to: SVG Repo, www.svgrepo.com, Generator: SVG Repo Mixer Tools -->
<svg width="800px" height="800px" viewBox="0 0 64 64" data-name="Layer 1" id="Layer_1" xmlns="http://www.w3.org/2000/svg"><defs><style>.cls-1{fill:#838bc5;}.cls-2{fill:#65c8d0;}.cls-3{fill:#8f6c56;}.cls-4{fill:#f4ecce;}.cls-5{fill:#ba9bc9;}.cls-6{fill:#fcdd7c;}</style></defs><polyline class="cls-1" points="55 44 55 62 9 62 9 44"/><path class="cls-2" d="M30,44V56a2,2,0,0,1-2,2h0a2,2,0,0,1-2-2V44"/><path class="cls-2" d="M22,44V56a2,2,0,0,1-2,2h0a2,2,0,0,1-2-2V44"/><path class="cls-2" d="M46,44V56a2,2,0,0,1-2,2h0a2,2,0,0,1-2-2V44"/><path class="cls-2" d="M38,44V56a2,2,0,0,1-2,2h0a2,2,0,0,1-2-2V44"/><rect class="cls-3" height="42" rx="2" width="56" x="4" y="2"/><rect class="cls-1" height="34" width="48" x="8" y="6"/><rect class="cls-4" height="8" width="40" x="12" y="19"/><path class="cls-5" d="M52,18H12a1,1,0,0,0-1,1v8a1,1,0,0,0,1,1H52a1,1,0,0,0,1-1V19A1,1,0,0,0,52,18ZM29,20h6v6H29Zm-2,6H21V20h6Zm10-6h6v6H37ZM13,20h6v6H13Zm38,6H45V20h6Z"/><rect class="cls-2" height="4" width="2" x="15" y="21"/><rect class="cls-2" height="4" width="2" x="23" y="21"/><rect class="cls-2" height="4" width="2" x="31" y="21"/><rect class="cls-2" height="4" width="2" x="39" y="21"/><rect class="cls-2" height="4" width="2" x="47" y="21"/><rect class="cls-4" height="2" width="6" x="11" y="9"/><rect class="cls-4" height="2" width="6" x="19" y="9"/><rect class="cls-4" height="2" width="6" x="27" y="9"/><rect class="cls-4" height="2" width="6" x="35" y="9"/><rect class="cls-2" height="4" width="8" x="44" y="10"/><rect class="cls-6" height="2" width="2" x="13" y="13"/><rect class="cls-6" height="2" width="2" x="21" y="13"/><rect class="cls-6" height="2" width="2" x="29" y="13"/><rect class="cls-6" height="2" width="2" x="37" y="13"/><circle class="cls-2" cx="14" cy="34" r="2"/><circle class="cls-2" cx="22" cy="34" r="2"/><circle class="cls-2" cx="30" cy="34" r="2"/><circle class="cls-2" cx="38" cy="34" r="2"/><path class="cls-5" d="M14,37a3,3,0,1,1,3-3A3,3,0,0,1,14,37Zm0-4a1,1,0,1,0,1,1A1,1,0,0,0,14,33Z"/><path class="cls-5" d="M22,37a3,3,0,1,1,3-3A3,3,0,0,1,22,37Zm0-4a1,1,0,1,0,1,1A1,1,0,0,0,22,33Z"/><path class="cls-5" d="M30,37a3,3,0,1,1,3-3A3,3,0,0,1,30,37Zm0-4a1,1,0,1,0,1,1A1,1,0,0,0,30,33Z"/><path class="cls-5" d="M38,37a3,3,0,1,1,3-3A3,3,0,0,1,38,37Zm0-4a1,1,0,1,0,1,1A1,1,0,0,0,38,33Z"/><path class="cls-6" d="M52,37.32l-1.9-.64L50.61,35H49a1,1,0,0,1-.81-.42,1,1,0,0,1-.14-.9l1-3,1.9.64L50.39,33H52a1,1,0,0,1,.81.42,1,1,0,0,1,.14.9Z"/><rect class="cls-6" height="4" rx="2" width="36" x="14" y="48"/></svg>